<svg width="62" height="62" viewBox="0 0 62 62" fill="none" xmlns="http://www.w3.org/2000/svg">
<path d="M8.38152 15.6992C10.0023 14.5663 12.4455 14.7836 13.9008 15.9854L12.2317 13.5594C10.8886 11.6438 11.3696 9.57122 13.287 8.22632C15.2043 6.88659 20.6374 10.4885 20.6374 10.4885C19.2821 8.55393 19.5356 6.10206 21.4702 4.74509C23.4048 3.39329 26.0739 3.86056 27.4291 5.7986L45.3956 31.1793L43.1059 53.3788L23.9962 46.4095L7.32801 21.696C5.96069 19.7494 6.43313 17.0647 8.38152 15.6992Z" fill="#D2A077"/>
<path d="M4.64687 29.819C4.64687 29.819 2.69504 26.974 5.54175 25.0239C8.38501 23.0738 10.3351 25.917 10.3351 25.917L19.3891 39.1212C19.7012 38.6005 20.0426 38.0867 20.4236 37.5798L7.85739 19.2563C7.85739 19.2563 5.90728 16.4131 8.75227 14.463C11.5955 12.5128 13.5456 15.3561 13.5456 15.3561L25.3653 32.5933C25.8049 32.2346 26.255 31.8743 26.7188 31.5208L13.0163 11.5352C13.0163 11.5352 11.0662 8.69194 13.9112 6.74183C16.7544 4.79172 18.7045 7.63498 18.7045 7.63498L32.407 27.6171C32.9105 27.3085 33.4088 27.0412 33.9088 26.7585L21.1012 8.08156C21.1012 8.08156 19.1511 5.2383 21.9944 3.28819C24.8376 1.33808 26.7878 4.18134 26.7878 4.18134L40.3299 23.9307L42.3886 26.9343C33.8571 32.7864 33.045 43.7956 37.9194 50.9046C38.8936 52.3271 40.3161 51.3529 40.3161 51.3529C34.4658 42.8197 36.2521 33.2312 44.7853 27.3809L42.2696 14.7906C42.2696 14.7906 41.3299 11.4731 44.6456 10.5317C47.9631 9.59199 48.9045 12.9094 48.9045 12.9094L51.8098 21.5375C52.9616 24.9584 54.1876 28.3672 55.8101 31.5915C60.3913 40.6954 57.655 52.0099 49.0166 57.9361C39.5936 64.3968 26.7119 61.9949 20.2495 52.5737L4.64687 29.819Z" fill="#F3D2A2"/>
<path d="M20.6908 55.1755C13.7939 55.1755 6.82451 48.2061 6.82451 41.3092C6.82451 40.3557 6.12619 39.585 5.17269 39.585C4.21919 39.585 3.37604 40.3557 3.37604 41.3092C3.37604 51.6546 10.3454 58.624 20.6908 58.624C21.6443 58.624 22.415 57.7808 22.415 56.8273C22.415 55.8738 21.6443 55.1755 20.6908 55.1755Z" fill="#5DADEC"/>
<path d="M12.0696 58.5515C6.89694 58.5515 3.44847 55.1031 3.44847 49.9304C3.44847 48.9769 2.67774 48.2061 1.72423 48.2061C0.770733 48.2061 0 48.9769 0 49.9304C0 56.8273 5.1727 62 12.0696 62C13.0231 62 13.7939 61.2293 13.7939 60.2758C13.7939 59.3223 13.0231 58.5515 12.0696 58.5515ZM41.3816 3.37604C40.4298 3.37604 39.6574 4.14849 39.6574 5.10027C39.6574 6.05205 40.4298 6.82451 41.3816 6.82451C48.2785 6.82451 55.1755 13.0128 55.1755 20.6184C55.1755 21.5702 55.9479 22.3426 56.8997 22.3426C57.8515 22.3426 58.624 21.5702 58.624 20.6184C58.624 11.111 51.727 3.37604 41.3816 3.37604Z" fill="#5DADEC"/>
<path d="M50.0028 0C49.051 0 48.2786 0.700039 48.2786 1.65182C48.2786 2.60359 49.051 3.44847 50.0028 3.44847C55.1755 3.44847 58.5515 7.28489 58.5515 11.9972C58.5515 12.949 59.3947 13.7215 60.3482 13.7215C61.3017 13.7215 62 12.949 62 11.9972C62 5.38133 56.8997 0 50.0028 0Z" fill="#5DADEC"/>
</svg>
